<?xml version="1.0" standalone="no"?>
<!DOCTYPE svg PUBLIC "-//W3C//DTD SVG 20010904//EN"
 "http://www.w3.org/TR/2001/REC-SVG-20010904/DTD/svg10.dtd">
<svg version="1.0" xmlns="http://www.w3.org/2000/svg"
 width="1020.000000pt" height="1020.000000pt" viewBox="0 0 1020.000000 1020.000000"
 preserveAspectRatio="xMidYMid meet">
<metadata>
Created by potrace 1.14, written by Peter Selinger 2001-2017
</metadata>
<g transform="translate(0.000000,1020.000000) scale(0.100000,-0.100000)"
fill="#000000" stroke="none">
<path d="M4400 9719 c-254 -21 -585 -82 -838 -155 -917 -265 -1714 -818 -2303
-1599 -452 -599 -746 -1334 -834 -2090 -39 -332 -38 -719 3 -1053 l18 -142
-65 -42 c-37 -24 -103 -79 -148 -125 -145 -146 -211 -320 -201 -538 4 -81 10
-112 30 -157 45 -98 143 -177 255 -207 l43 -12 -61 -72 c-115 -136 -181 -273
-183 -379 -1 -62 15 -93 68 -132 57 -43 185 -20 436 76 l66 26 55 -137 55
-136 -68 -17 c-157 -39 -283 -131 -338 -250 -101 -216 -40 -407 162 -509 32
-16 119 -49 195 -74 149 -50 210 -82 217 -118 3 -12 7 -96 9 -187 5 -173 16
-229 63 -321 31 -62 112 -133 181 -159 82 -31 216 -29 348 5 l100 25 24 -27
c189 -223 351 -353 591 -473 699 -350 1722 -381 2919 -90 320 79 728 203 976
299 44 17 85 31 91 31 6 0 16 -19 23 -42 95 -320 462 -510 780 -403 192 65
337 210 397 399 65 206 11 381 -144 465 l-54 28 129 68 c519 275 1039 617
1423 935 165 137 494 467 604 605 270 339 432 675 491 1019 19 111 19 363 0
469 -7 42 -25 120 -40 171 l-27 94 56 68 c72 87 140 226 160 326 36 178 7 326
-90 459 l-34 47 47 7 c70 10 127 38 154 76 50 71 24 203 -68 338 -49 71 -172
189 -261 249 -83 56 -83 57 -77 92 12 60 6 189 -11 258 -98 394 -314 628 -637
689 -63 12 -118 14 -242 9 -88 -3 -178 -9 -200 -12 l-41 -6 -18 59 c-45 145
-238 440 -477 728 -102 123 -402 424 -524 526 -709 593 -1577 949 -2484 1019
-156 12 -548 11 -701 -1z m839 -203 c629 -80 1171 -263 1680 -569 320 -192
598 -417 871 -702 151 -158 154 -166 15 -45 -321 278 -632 485 -1010 670 -410
201 -808 329 -1259 405 -81 14 -155 25 -165 25 -10 0 -22 -13 -29 -34 -17 -45
-103 -124 -176 -159 -32 -16 -102 -40 -155 -55 -85 -22 -115 -25 -261 -25
-145 0 -177 3 -263 26 -169 45 -292 123 -327 208 -13 31 -14 31 -64 25 -163
-21 -470 -92 -688 -160 -202 -63 -399 -142 -613 -245 -221 -107 -352 -182
-560 -320 -225 -149 -396 -286 -635 -509 -74 -70 -128 -118 -119 -107 234 294
535 583 829 796 468 340 993 577 1559 704 119 27 405 70 556 84 148 14 665 5
814 -13z m327 -671 c133 -66 293 -271 269 -345 -26 -81 -239 44 -344 201 -96
143 -60 211 75 144z m-605 -441 c72 -36 206 -244 224 -346 15 -79 -21 -116
-82 -85 -77 40 -199 212 -228 322 -19 74 -19 85 1 113 17 24 32 23 85 -4z
m-2275 -149 c40 -95 -22 -331 -115 -437 -39 -45 -66 -53 -92 -27 -15 15 -19
33 -19 92 0 134 56 290 131 369 46 49 75 50 95 3z m701 -113 c12 -28 14 -61
10 -142 -5 -119 -30 -209 -76 -282 -26 -40 -36 -48 -61 -48 -26 0 -33 6 -46
35 -48 116 -2 379 82 463 29 29 36 32 54 22 12 -6 29 -28 37 -48z m849 33 c93
-93 129 -420 54 -495 -85 -85 -199 260 -146 442 23 79 50 95 92 53z m5292
-1724 c-64 -124 -311 -207 -1043 -351 -227 -45 -390 -103 -464 -165 -40 -34
-80 -116 -82 -165 -1 -26 -6 -15 -20 45 -30 128 -28 137 39 207 90 96 139 112
632 213 348 71 595 134 713 183 99 40 198 101 225 137 17 23 17 23 20 -17 2
-28 -4 -55 -20 -87z m-1561 -873 c-3 -8 -6 -5 -6 6 -1 11 2 17 5 13 3 -3 4
-12 1 -19z m27 -223 c1 -130 -2 -159 -22 -223 -60 -190 -148 -316 -254 -362
-63 -27 -169 -50 -228 -49 l-45 1 48 13 c93 25 160 66 240 146 64 64 85 93
121 170 25 52 54 123 66 159 23 72 49 228 51 305 1 48 1 49 11 20 6 -16 11
-97 12 -180z m1880 -150 c-36 -137 -127 -263 -256 -352 -73 -50 -388 -215
-388 -203 0 4 14 28 32 54 36 56 86 98 327 281 164 124 228 183 276 258 10 15
19 26 21 24 2 -1 -4 -30 -12 -62z m-3273 -484 c-43 -43 -71 -115 -71 -182 0
-20 11 -81 25 -135 43 -168 55 -252 55 -374 0 -272 -99 -476 -292 -601 -59
-38 -168 -79 -210 -79 -16 0 -12 6 18 26 78 53 105 78 154 139 57 71 120 193
143 275 48 167 60 401 31 580 -8 52 -17 136 -20 185 -5 79 -3 94 15 122 28 45
59 62 127 72 32 5 60 9 62 10 1 0 -16 -17 -37 -38z m2509 -841 c0 -6 -9 -28
-20 -50 -51 -99 -160 -128 -580 -150 -107 -6 -236 -17 -287 -25 -107 -17 -262
-70 -342 -117 -86 -51 -253 -224 -411 -428 -166 -214 -309 -362 -390 -403
l-55 -28 35 27 c66 52 185 179 256 274 39 52 131 176 204 275 169 227 276 336
385 392 151 77 281 107 537 123 423 27 522 42 610 93 49 29 58 31 58 17z
m-4620 -239 c0 -5 -12 -17 -27 -27 -52 -34 -135 -119 -219 -225 -94 -118 -149
-169 -256 -235 -111 -68 -256 -114 -361 -114 l-41 0 75 45 c127 76 205 150
344 329 93 120 190 192 295 222 52 14 190 18 190 5z m1968 -484 c-4 -34 -9
-136 -9 -227 -2 -258 35 -468 116 -650 50 -116 85 -235 85 -294 0 -101 -26
-135 -114 -152 -38 -7 -39 -6 -32 17 38 138 29 208 -53 398 -91 209 -106 280
-106 491 0 158 3 186 28 285 29 116 75 225 86 206 4 -6 4 -39 -1 -74z m-659
-302 c16 -14 35 -41 41 -60 10 -30 9 -41 -9 -78 -33 -68 -145 -210 -220 -278
-136 -126 -258 -179 -406 -178 -99 1 -150 9 -147 23 0 5 34 20 74 32 91 29
184 84 248 148 48 47 76 96 138 236 32 72 80 133 127 162 45 27 116 24 154 -7z
m1426 -1619 c41 -17 75 -68 75 -112 0 -33 -22 -58 -99 -113 -62 -43 -72 -41
-54 12 17 47 22 157 10 200 -6 23 -4 27 13 27 11 0 36 -6 55 -14z"/>
</g>
</svg>
